<svg width="84" height="26" viewBox="0 0 84 26" fill="none" xmlns="http://www.w3.org/2000/svg">
<path d="M0.756 25.56C0.252 25.56 0 25.416 0 25.128V25.056C0 24.864 0.216 24.6 0.648 24.264C1.104 23.904 1.332 23.496 1.332 23.04V2.52C1.332 2.04 1.104 1.632 0.648 1.296C0.216 0.936001 0 0.672 0 0.504V0.432001C0 0.144001 0.252 0 0.756 0H8.64C12.696 0 16.128 1.176 18.936 3.528C21.768 5.856 23.184 8.868 23.184 12.564C23.184 16.524 21.924 19.68 19.404 22.032C16.908 24.384 13.752 25.56 9.936 25.56H0.756ZM6.228 24.084H9.72C12.6 24.084 15 23.16 16.92 21.312C18.864 19.44 19.836 16.908 19.836 13.716C19.836 10.092 18.66 7.152 16.308 4.896C13.98 2.616 11.232 1.476 8.064 1.476H5.544C4.872 1.476 4.536 1.86 4.536 2.628V22.104C4.536 22.728 4.68 23.22 4.968 23.58C5.28 23.916 5.7 24.084 6.228 24.084Z" fill="white"/>
<path d="M33.7756 7.92C34.8076 7.92 35.6116 8.184 36.1876 8.712C36.7876 9.24 37.0876 9.9 37.0876 10.692C37.0876 11.82 36.6076 12.384 35.6476 12.384C35.2396 12.384 34.9156 12.252 34.6756 11.988C34.4356 11.724 34.2676 11.436 34.1716 11.124C34.0996 10.812 33.9196 10.524 33.6316 10.26C33.3436 9.996 32.9476 9.864 32.4436 9.864C31.4836 9.864 30.7276 10.344 30.1756 11.304C29.6476 12.24 29.3836 13.416 29.3836 14.832V23.04C29.3836 23.52 29.6356 23.928 30.1396 24.264C30.6436 24.576 30.8956 24.816 30.8956 24.984V25.128C30.8956 25.416 30.6556 25.56 30.1756 25.56H25.7116C25.2316 25.56 24.9916 25.416 24.9916 25.128V24.984C24.9916 24.816 25.2076 24.576 25.6396 24.264C26.0956 23.928 26.3236 23.52 26.3236 23.04V12.096C26.3236 11.592 26.0836 11.16 25.6036 10.8C25.1236 10.44 24.8836 10.176 24.8836 10.008V9.936C24.8836 9.696 25.0636 9.48 25.4236 9.288L28.1596 8.064C28.7836 7.776 29.0956 7.944 29.0956 8.568V11.448C29.9116 9.096 31.4716 7.92 33.7756 7.92Z" fill="white"/>
<path d="M51.6341 20.484C51.8021 20.22 52.0301 20.124 52.3181 20.196C52.6061 20.244 52.7261 20.436 52.6781 20.772C52.4141 22.044 51.6461 23.22 50.3741 24.3C49.1021 25.38 47.4341 25.92 45.3701 25.92C42.9941 25.92 41.0021 25.08 39.3941 23.4C37.8101 21.72 37.0181 19.512 37.0181 16.776C37.0181 14.256 37.8341 12.156 39.4661 10.476C41.0981 8.772 43.1141 7.92 45.5141 7.92C47.5541 7.92 49.1741 8.472 50.3741 9.576C51.5981 10.656 52.2101 11.88 52.2101 13.248C52.2101 14.28 51.6461 14.988 50.5181 15.372L40.5461 18.648C40.9541 20.208 41.6741 21.432 42.7061 22.32C43.7621 23.184 45.0221 23.616 46.4861 23.616C48.9581 23.616 50.6741 22.572 51.6341 20.484ZM44.9741 9.072C43.5341 9.072 42.3701 9.696 41.4821 10.944C40.5941 12.192 40.1501 13.752 40.1501 15.624C40.1501 16.344 40.1981 16.956 40.2941 17.46L48.3221 14.58C48.8981 14.34 49.1861 13.92 49.1861 13.32C49.1861 12.408 48.7661 11.472 47.9261 10.512C47.1101 9.552 46.1261 9.072 44.9741 9.072Z" fill="white"/>
<path d="M78.6409 8.28C78.9769 8.28 79.1449 8.424 79.1449 8.712V8.82C79.1449 9.012 78.9169 9.276 78.4609 9.612C78.0289 9.924 77.7169 10.332 77.5249 10.836L72.4849 24.84C72.3169 25.32 72.0169 25.56 71.5849 25.56H70.9009C70.3969 25.56 70.0729 25.32 69.9289 24.84L65.8609 12.096L61.7569 24.84C61.6129 25.32 61.3129 25.56 60.8569 25.56H60.3889C59.9329 25.56 59.6089 25.32 59.4169 24.84L53.8729 10.836C53.6809 10.356 53.3929 9.948 53.0089 9.612C52.6489 9.276 52.4689 9.012 52.4689 8.82V8.712C52.4689 8.424 52.6489 8.28 53.0089 8.28H57.5449C57.8809 8.28 58.0489 8.424 58.0489 8.712V8.82C58.0489 8.988 57.9289 9.144 57.6889 9.288C57.4489 9.432 57.2449 9.624 57.0769 9.864C56.9089 10.104 56.8969 10.44 57.0409 10.872L61.1449 22.32L65.3929 8.928C65.4889 8.544 65.6929 8.352 66.0049 8.352L67.1929 8.316C67.4809 8.316 67.6849 8.508 67.8049 8.892L71.9449 22.464L75.9409 11.088C76.1089 10.608 76.0849 10.236 75.8689 9.972C75.6529 9.708 75.3889 9.492 75.0769 9.324C74.7889 9.156 74.6449 8.988 74.6449 8.82V8.712C74.6449 8.424 74.8249 8.28 75.1849 8.28H78.6409Z" fill="white"/>
<path d="M80.4513 25.92C79.7793 25.92 79.2273 25.74 78.7953 25.38C78.3633 24.996 78.1473 24.468 78.1473 23.796C78.1473 23.1 78.3633 22.56 78.7953 22.176C79.2273 21.792 79.7793 21.6 80.4513 21.6C81.0993 21.6 81.6393 21.792 82.0713 22.176C82.5033 22.56 82.7193 23.1 82.7193 23.796C82.7193 24.468 82.5033 24.996 82.0713 25.38C81.6393 25.74 81.0993 25.92 80.4513 25.92Z" fill="white"/>
</svg>
