<svg width="80" height="80" viewBox="0 0 80 80" fill="none" xmlns="http://www.w3.org/2000/svg">
<path d="M30.7929 31.9258L30.7929 31.9259L30.7848 31.9207C30.7411 31.8925 30.6881 31.875 30.625 31.875C30.4529 31.875 30.3125 32.0154 30.3125 32.1875C30.3125 32.2704 30.3433 32.3431 30.3946 32.3984L30.3961 32.4C30.4546 32.4633 30.5336 32.5 30.625 32.5C30.7971 32.5 30.9375 32.3596 30.9375 32.1875C30.9375 32.0789 30.8829 31.983 30.7929 31.9258Z" fill="white" stroke="white" stroke-width="2.5"/>
<path d="M40 1.5625V11.875" stroke="white" stroke-width="2.5" stroke-linecap="round" stroke-linejoin="round"/>
<path d="M40 68.125V78.4375" stroke="white" stroke-width="2.5" stroke-linecap="round" stroke-linejoin="round"/>
<path d="M10.3579 13.4829L16.9876 20.1125" stroke="white" stroke-width="2.5" stroke-linecap="round" stroke-linejoin="round"/>
<path d="M63.0125 61.4499L69.6421 68.0796" stroke="white" stroke-width="2.5" stroke-linecap="round" stroke-linejoin="round"/>
<path d="M69.6421 13.4829L63.0125 20.1125" stroke="white" stroke-width="2.5" stroke-linecap="round" stroke-linejoin="round"/>
<path d="M16.9874 61.4499L10.3577 68.0796" stroke="white" stroke-width="2.5" stroke-linecap="round" stroke-linejoin="round"/>
<path d="M74.375 40C74.375 40 60.7109 60.3125 40 60.3125C19.2891 60.3125 5.625 40 5.625 40C5.625 40 19.2891 19.6875 40 19.6875C60.7109 19.6875 74.375 40 74.375 40Z" stroke="white" stroke-width="2.5" stroke-linecap="round" stroke-linejoin="round"/>
<path d="M35.5328 28.3219C35.5889 28.3 35.6453 28.2797 35.7016 28.2594C35.7639 28.2359 35.8266 28.2141 35.8891 28.1922C35.9453 28.1719 36.0016 28.1531 36.0594 28.1344C36.1328 28.1094 36.2094 28.0844 36.2844 28.0609C36.3813 28.0312 36.4781 28.0016 36.5766 27.975C36.6719 27.9469 36.7688 27.9203 36.8672 27.8953C36.9703 27.8687 37.0733 27.8437 37.1766 27.8203C37.2734 27.7984 37.3687 27.7766 37.4656 27.7578C37.5437 27.7406 37.6219 27.725 37.7016 27.7109C37.7703 27.6984 37.8391 27.6859 37.9078 27.675C37.9452 27.6672 37.9842 27.6609 38.0233 27.6562C38.0937 27.6438 38.1641 27.6344 38.2344 27.625C38.2531 27.6219 38.2703 27.6187 38.2891 27.6172C38.3484 27.6078 38.4094 27.6 38.4703 27.5922C38.5359 27.5844 38.6016 27.5766 38.6672 27.5703L38.7609 27.5609C38.8281 27.5531 38.8969 27.5469 38.9641 27.5422C38.9998 27.5391 39.0359 27.5359 39.0717 27.5344C39.117 27.5297 39.1641 27.5266 39.2094 27.525C39.2766 27.5203 39.3452 27.5172 39.4125 27.5141C39.5 27.5094 39.5875 27.5062 39.6766 27.5047C39.7828 27.5016 39.892 27.5 40 27.5C46.9031 27.5 52.5 33.0969 52.5 40C52.5 42.1578 51.9531 44.1875 50.9906 45.9578C50.8953 46.1328 50.7967 46.3062 50.6938 46.475C50.6405 46.5641 50.5859 46.65 50.5295 46.7375C50.4297 46.8937 50.3266 47.0469 50.2203 47.1984C50.2094 47.2141 50.1983 47.2281 50.1875 47.2437C49.9594 47.5656 49.7156 47.8766 49.4561 48.1734C49.2608 48.4 49.0562 48.6203 48.8436 48.8328C48.6516 49.025 48.453 49.2125 48.2484 49.3906C47.3906 50.1453 46.4297 50.7844 45.3875 51.2812C45.2156 51.3641 45.042 51.4422 44.8655 51.5172C44.4922 51.675 44.1078 51.8156 43.7172 51.9375C43.325 52.0594 42.9266 52.1625 42.5187 52.2453C41.7047 52.4125 40.8623 52.5 40 52.5C33.0969 52.5 27.5 46.9031 27.5 40C27.5 39.8922 27.5016 39.7844 27.5047 39.6781C27.5062 39.5906 27.5092 39.5047 27.5141 39.4172C27.5172 39.3359 27.5217 39.2547 27.5266 39.175C27.5281 39.1516 27.5297 39.1281 27.5313 39.1047C27.5375 39.0297 27.542 38.9547 27.55 38.8797C27.5516 38.8609 27.5531 38.8437 27.5545 38.825C27.5625 38.7359 27.5719 38.6469 27.5828 38.5594V38.5562C27.5936 38.4625 27.6047 38.3687 27.6187 38.275C27.6281 38.2047 27.6375 38.1344 27.65 38.0641C27.6625 37.9703 27.678 37.8797 27.6953 37.7875C27.6983 37.7625 27.7031 37.7391 27.7078 37.7141" stroke="white" stroke-width="2.5" stroke-linecap="round" stroke-linejoin="round"/>
<path d="M40 44.6875C37.4156 44.6875 35.3125 42.5844 35.3125 40C35.3125 37.4156 37.4156 35.3125 40 35.3125C42.5844 35.3125 44.6875 37.4156 44.6875 40C44.6875 42.5844 42.5844 44.6875 40 44.6875Z" stroke="white" stroke-width="2.5" stroke-linecap="round" stroke-linejoin="round"/>
</svg>
