<svg width="80" height="80" viewBox="0 0 80 80" fill="none" xmlns="http://www.w3.org/2000/svg">
<g clip-path="url(#clip0_18_4)">
<path d="M66.3099 26.689C66.3166 21.4725 64.7924 16.3686 61.9263 12.0099C59.0601 7.65127 54.978 4.22948 50.1858 2.16851C45.3936 0.107547 40.102 -0.501978 34.9668 0.415537C29.8315 1.33305 25.0784 3.73727 21.2964 7.33019C17.5144 10.9231 14.8697 15.5468 13.6903 20.6283C12.5108 25.7098 12.8483 31.0256 14.661 35.9172C16.4737 40.8087 19.6818 45.0608 23.8879 48.1466C28.0939 51.2323 33.113 53.016 38.323 53.2767V66.6725H27.6604V69.3374H38.322V80H40.9879V69.3374H51.6495V66.6725H40.9879V53.2767C47.8113 52.9329 54.2424 49.9829 58.9542 45.0356C63.666 40.0883 66.299 33.5211 66.3099 26.689V26.689ZM39.655 50.6791C34.9101 50.6792 30.2718 49.2724 26.3265 46.6365C22.3812 44.0005 19.3062 40.2539 17.4903 35.8703C15.6744 31.4867 15.1991 26.6631 16.1247 22.0094C17.0502 17.3558 19.335 13.081 22.6901 9.72586C26.0451 6.37068 30.3197 4.08575 34.9733 3.16001C39.627 2.23426 44.4507 2.70931 48.8344 4.52504C53.218 6.34076 56.9648 9.4156 59.6009 13.3608C62.237 17.3059 63.644 21.9442 63.644 26.689C63.6369 33.0492 61.1072 39.1469 56.6099 43.6443C52.1127 48.1418 46.0151 50.6716 39.655 50.6791V50.6791Z" fill="white"/>
</g>
<defs>
<clipPath id="clip0_18_4">
<rect width="80" height="80" fill="white"/>
</clipPath>
</defs>
</svg>
