<svg width="80" height="80" viewBox="0 0 80 80" fill="none" xmlns="http://www.w3.org/2000/svg">
<path d="M50.5855 40H34.4619C33.3309 40 32.4141 40.9167 32.4141 42.0476V44.25C32.4141 45.3809 33.3309 46.2976 34.4619 46.2976H50.5855C51.7162 46.2976 52.633 45.3809 52.633 44.25V42.0476C52.633 40.9167 51.7162 40 50.5855 40Z" stroke="white" stroke-width="2" stroke-miterlimit="10" stroke-linecap="round" stroke-linejoin="round"/>
<path d="M10.3739 25.4016L7.78361 26.402C7.20345 26.6262 6.91486 27.2781 7.13892 27.8583L10.3335 36.1284C10.5575 36.7086 11.2095 36.9973 11.7895 36.7731L14.38 35.7727C14.96 35.5484 15.2486 34.8967 15.0245 34.3166L11.83 26.0462C11.606 25.4661 10.9541 25.1775 10.3739 25.4016Z" stroke="white" stroke-width="2" stroke-miterlimit="10" stroke-linecap="round" stroke-linejoin="round"/>
<path d="M63.6257 1.2492L61.0354 2.24967C60.4552 2.47389 60.1665 3.12576 60.3907 3.70592L65.9938 18.212C66.218 18.792 66.8699 19.0808 67.4501 18.8567L70.0404 17.8561C70.6205 17.632 70.909 16.9801 70.6851 16.4L65.0816 1.89389C64.8577 1.31373 64.2059 1.02498 63.6257 1.2492Z" stroke="white" stroke-width="2" stroke-miterlimit="10" stroke-linecap="round" stroke-linejoin="round"/>
<path d="M48.3998 40V39.1255C48.3998 37.015 46.689 35.3042 44.5786 35.3042H40.4687C38.3582 35.3042 36.6475 37.015 36.6475 39.1255V40H48.3998Z" stroke="white" stroke-width="2" stroke-miterlimit="10" stroke-linecap="round" stroke-linejoin="round"/>
<path d="M35.438 26.1839L32.4099 18.3442C32.3824 18.2733 32.3596 18.2017 32.3393 18.13L18.8285 23.3486C17.8716 23.7183 17.3955 24.7936 17.7652 25.7505L19.6174 30.5455C19.9869 31.5024 21.0622 31.9784 22.0191 31.6089L35.5299 26.39C35.4966 26.3234 35.4655 26.2549 35.438 26.1839Z" stroke="white" stroke-width="2" stroke-miterlimit="10" stroke-linecap="round" stroke-linejoin="round"/>
<path d="M17.7854 25.8025L12.5215 27.8358L14.3334 32.5269L19.5974 30.4934L17.7854 25.8025Z" stroke="white" stroke-width="2" stroke-miterlimit="10" stroke-linecap="round" stroke-linejoin="round"/>
<path d="M65.1836 2.15748L70.5831 16.1362C72.7695 13.9019 73.5822 10.5155 72.3823 7.40889C71.1825 4.30264 68.3042 2.34186 65.1836 2.15748Z" stroke="white" stroke-width="2" stroke-miterlimit="10" stroke-linecap="round" stroke-linejoin="round"/>
<path d="M46.6323 25.4689C46.6323 27.7379 44.7928 29.5776 42.5235 29.5776C40.2545 29.5776 38.4148 27.7379 38.4148 25.4689C38.4148 23.1998 40.2545 21.3601 42.5235 21.3601C44.7928 21.3601 46.6323 23.1998 46.6323 25.4689Z" stroke="white" stroke-width="2" stroke-miterlimit="10" stroke-linecap="round" stroke-linejoin="round"/>
<path d="M42.5235 29.5777C41.698 29.5777 40.93 29.3335 40.2861 28.9145V35.3088C40.3466 35.306 40.4074 35.3041 40.4686 35.3041H44.5783C44.6396 35.3041 44.7004 35.306 44.7608 35.3088V28.9145C44.1169 29.3335 43.3489 29.5777 42.5235 29.5777Z" stroke="white" stroke-width="2" stroke-miterlimit="10" stroke-linecap="round" stroke-linejoin="round"/>
<path d="M24.4292 75.8155C23.8906 77.2763 24.9715 78.8269 26.5284 78.8269C27.4656 78.8269 28.3032 78.243 28.6275 77.3638L40.0845 46.2975H35.3153L24.4292 75.8155Z" stroke="white" stroke-width="2" stroke-miterlimit="10" stroke-linecap="round" stroke-linejoin="round"/>
<path d="M60.6178 75.8155L49.7319 46.2975H44.9626L56.4195 77.3638C56.7437 78.243 57.5816 78.8269 58.5186 78.8269C60.0756 78.8269 61.1566 77.2763 60.6178 75.8155Z" stroke="white" stroke-width="2" stroke-miterlimit="10" stroke-linecap="round" stroke-linejoin="round"/>
<path d="M59.055 19.6357L65.5716 17.1186L60.8132 4.79911L33.7847 15.2393C32.5477 15.7171 31.9321 17.1072 32.41 18.3443L35.4382 26.184C35.916 27.421 37.3061 28.0366 38.5432 27.5588L38.9063 27.4185C38.593 26.8385 38.4149 26.1746 38.4149 25.469C38.4149 23.1999 40.2546 21.3602 42.5236 21.3602C44.4521 21.3602 46.0694 22.689 46.5119 24.4807L53.9458 21.6093" stroke="white" stroke-width="2" stroke-miterlimit="10" stroke-linecap="round" stroke-linejoin="round"/>
<path d="M44.761 61.0632V46.2975H40.2861V76.5896C40.2861 77.8252 41.2879 78.8269 42.5236 78.8269C43.7593 78.8269 44.761 77.8252 44.761 76.5896V66.5319" stroke="white" stroke-width="2" stroke-miterlimit="10" stroke-linecap="round" stroke-linejoin="round"/>
</svg>
