<svg width="80" height="80" viewBox="0 0 80 80" fill="none" xmlns="http://www.w3.org/2000/svg">
<g clip-path="url(#clip0_19_41)">
<path d="M79.8555 31.3949C79.754 31.2095 79.6045 31.0549 79.4226 30.9471C79.2408 30.8394 79.0333 30.7826 78.822 30.7826H55.415L59.4166 26.7809C59.5812 26.6162 59.6933 26.4064 59.7387 26.178C59.784 25.9496 59.7607 25.7128 59.6715 25.4977C59.5823 25.2826 59.4314 25.0987 59.2378 24.9694C59.0441 24.84 58.8165 24.771 58.5836 24.771H45.496L41.1182 11.639C41.04 11.4046 40.89 11.2008 40.6896 11.0564C40.4891 10.9119 40.2483 10.8342 40.0012 10.8342C39.7541 10.8342 39.5133 10.9119 39.3129 11.0564C39.1124 11.2008 38.9624 11.4046 38.8842 11.639L34.5071 24.771H21.4188C21.1859 24.771 20.9583 24.84 20.7647 24.9694C20.571 25.0987 20.4201 25.2826 20.3309 25.4977C20.2417 25.7128 20.2184 25.9496 20.2637 26.178C20.3091 26.4064 20.4212 26.6162 20.5858 26.7809L24.5874 30.7799H1.18045C0.968483 30.7794 0.760306 30.8361 0.577884 30.944C0.395461 31.052 0.245558 31.2071 0.143989 31.3932C0.042421 31.5792 -0.00704573 31.7893 0.000808919 32.0011C0.00866357 32.2129 0.0735483 32.4187 0.188617 32.5967L8.63467 45.7899V78.8192C8.63458 78.9738 8.66498 79.127 8.72412 79.2699C8.78327 79.4128 8.87001 79.5427 8.97937 79.652C9.08873 79.7614 9.21858 79.8481 9.36149 79.9073C9.50439 79.9664 9.65756 79.9968 9.81222 79.9967H70.1902C70.3449 79.9968 70.498 79.9664 70.6409 79.9073C70.7838 79.8481 70.9137 79.7614 71.023 79.652C71.1324 79.5427 71.2191 79.4128 71.2783 79.2699C71.3374 79.127 71.3678 78.9738 71.3677 78.8192V45.7893L79.8138 32.5967C79.9279 32.4185 79.992 32.2129 79.9993 32.0015C80.0066 31.7901 79.957 31.5806 79.8555 31.3949V31.3949ZM24.2618 27.1261H35.3583C35.6057 27.126 35.8468 27.048 36.0474 26.903C36.2479 26.7581 36.3976 26.5536 36.4753 26.3187L40.0012 15.7355L43.5298 26.3207C43.6076 26.5556 43.7573 26.76 43.9578 26.9049C44.1583 27.0499 44.3994 27.128 44.6468 27.1281H55.7413L52.0849 30.7799H48.633C48.4354 30.7799 48.2409 30.8296 48.0676 30.9245C47.8942 31.0194 47.7476 31.1564 47.6411 31.3229L40.0012 43.2612L32.3613 31.3256C32.2548 31.1591 32.1082 31.0221 31.9348 30.9272C31.7615 30.8323 31.5671 30.7825 31.3694 30.7826H27.9182L24.2618 27.1261ZM30.7214 33.1377L37.848 44.2679H10.4568L3.33234 33.135L30.7214 33.1377ZM10.9898 46.623H38.8237V77.643H10.9898V46.623ZM69.0126 77.643H41.1788V46.623H69.0126V77.643ZM69.5462 44.2679H42.1544L49.2776 33.135H76.6734L69.5462 44.2679Z" fill="white"/>
<path d="M40.0013 7.43538C40.3135 7.4352 40.6129 7.31108 40.8337 7.09029C41.0545 6.86949 41.1786 6.57008 41.1788 6.25783V1.17755C41.1788 0.865243 41.0548 0.565729 40.8339 0.344896C40.6131 0.124063 40.3136 0 40.0013 0C39.689 0 39.3895 0.124063 39.1686 0.344896C38.9478 0.565729 38.8237 0.865243 38.8237 1.17755V6.25783C38.8239 6.57008 38.948 6.86949 39.1688 7.09029C39.3896 7.31108 39.689 7.4352 40.0013 7.43538V7.43538Z" fill="white"/>
<path d="M26.444 10.2059C26.5208 10.3409 26.6235 10.4593 26.7462 10.5545C26.8689 10.6496 27.0093 10.7196 27.1592 10.7603C27.309 10.8009 27.4655 10.8116 27.6195 10.7916C27.7735 10.7716 27.922 10.7213 28.0565 10.6436C28.191 10.566 28.3088 10.4625 28.4031 10.3391C28.4974 10.2158 28.5664 10.075 28.6061 9.92483C28.6458 9.77469 28.6554 9.61819 28.6344 9.46432C28.6133 9.31046 28.5621 9.16228 28.4835 9.02831L25.9434 4.62899C25.8666 4.49399 25.7639 4.3755 25.6412 4.28035C25.5185 4.1852 25.3781 4.11527 25.2283 4.07458C25.0784 4.0339 24.922 4.02325 24.768 4.04327C24.614 4.06329 24.4654 4.11357 24.3309 4.19122C24.1965 4.26887 24.0787 4.37235 23.9843 4.49571C23.89 4.61907 23.821 4.75988 23.7813 4.91001C23.7416 5.06015 23.732 5.21665 23.753 5.37052C23.7741 5.52438 23.8253 5.67256 23.9039 5.80653L26.444 10.2059Z" fill="white"/>
<path d="M13.2971 17.2743L17.6971 19.8118C17.8311 19.8903 17.9792 19.9416 18.1331 19.9626C18.287 19.9837 18.4435 19.9741 18.5936 19.9344C18.7438 19.8947 18.8846 19.8257 19.0079 19.7313C19.1313 19.637 19.2348 19.5192 19.3124 19.3847C19.3901 19.2502 19.4403 19.1017 19.4604 18.9477C19.4804 18.7937 19.4697 18.6373 19.429 18.4874C19.3884 18.3375 19.3184 18.1972 19.2233 18.0745C19.1281 17.9517 19.0096 17.849 18.8746 17.7723L14.4746 15.2362C14.2043 15.0825 13.8842 15.0419 13.5841 15.1234C13.284 15.2049 13.0283 15.4017 12.8729 15.671C12.7174 15.9403 12.6747 16.2602 12.7542 16.5608C12.8337 16.8614 13.0288 17.1184 13.2971 17.2757V17.2743Z" fill="white"/>
<path d="M51.9497 10.6372C52.0836 10.7146 52.2314 10.7649 52.3848 10.7851C52.5381 10.8053 52.6939 10.7951 52.8433 10.755C52.9927 10.715 53.1327 10.6459 53.2553 10.5516C53.3779 10.4574 53.4808 10.3399 53.5579 10.2059L56.0987 5.80653C56.1773 5.67256 56.2285 5.52438 56.2496 5.37052C56.2706 5.21665 56.261 5.06015 56.2213 4.91001C56.1816 4.75988 56.1126 4.61907 56.0183 4.49571C55.924 4.37235 55.8062 4.26887 55.6717 4.19122C55.5372 4.11357 55.3887 4.06329 55.2347 4.04327C55.0807 4.02325 54.9242 4.0339 54.7744 4.07458C54.6245 4.11527 54.4842 4.1852 54.3614 4.28035C54.2387 4.3755 54.136 4.49399 54.0592 4.62899L51.5184 9.02831C51.3624 9.29888 51.3202 9.62034 51.401 9.92203C51.4819 10.2237 51.6793 10.4809 51.9497 10.6372V10.6372Z" fill="white"/>
<path d="M61.7173 19.9725C61.9239 19.972 62.1266 19.9165 62.3047 19.8117L66.7054 17.2715C66.9736 17.1143 67.1688 16.8573 67.2483 16.5567C67.3277 16.256 67.2851 15.9362 67.1296 15.6669C66.9741 15.3976 66.7184 15.2007 66.4184 15.1193C66.1183 15.0378 65.7981 15.0783 65.5278 15.232L61.1298 17.7748C60.9051 17.9044 60.7294 18.1046 60.6302 18.3443C60.5309 18.584 60.5135 18.8498 60.5808 19.1003C60.6481 19.3509 60.7962 19.5722 61.0022 19.7299C61.2082 19.8876 61.4605 19.9729 61.72 19.9725H61.7173Z" fill="white"/>
</g>
<defs>
<clipPath id="clip0_19_41">
<rect width="80" height="80" fill="white"/>
</clipPath>
</defs>
</svg>
